<?xml version="1.0" encoding="utf-8"?>
<!-- Generator: Adobe Illustrator 23.0.4, SVG Export Plug-In . SVG Version: 6.00 Build 0)  -->
<svg version="1.1" id="Layer_1" xmlns="http://www.w3.org/2000/svg" xmlns:xlink="http://www.w3.org/1999/xlink" x="0px" y="0px"
	 viewBox="0 0 241 257" style="enable-background:new 0 0 241 257;" xml:space="preserve">
<style type="text/css">
	.st0{clip-path:url(#SVGID_2_);fill:#BAD0D8;}
	.st1{clip-path:url(#SVGID_4_);fill:#BAD0D8;}
	.st2{clip-path:url(#SVGID_6_);fill:#BAD0D8;}
	.st3{clip-path:url(#SVGID_8_);fill:#BAD0D8;}
	.st4{clip-path:url(#SVGID_10_);fill:#BAD0D8;}
	.st5{clip-path:url(#SVGID_12_);fill:#BAD0D8;}
	.st6{clip-path:url(#SVGID_14_);fill:#BAD0D8;}
	.st7{clip-path:url(#SVGID_16_);fill:#BAD0D8;}
	.st8{clip-path:url(#SVGID_18_);fill:#BAD0D8;}
	.st9{clip-path:url(#SVGID_20_);fill:#BAD0D8;}
	.st10{clip-path:url(#SVGID_22_);fill:#BAD0D8;}
	.st11{clip-path:url(#SVGID_24_);fill:#BAD0D8;}
	.st12{clip-path:url(#SVGID_26_);fill:#BAD0D8;}
	.st13{clip-path:url(#SVGID_28_);fill:#BAD0D8;}
	.st14{clip-path:url(#SVGID_30_);fill:#BAD0D8;}
	.st15{clip-path:url(#SVGID_32_);fill:#BAD0D8;}
	.st16{clip-path:url(#SVGID_34_);fill:#BAD0D8;}
	.st17{clip-path:url(#SVGID_36_);fill:#BAD0D8;}
	.st18{clip-path:url(#SVGID_38_);fill:#BAD0D8;}
	.st19{clip-path:url(#SVGID_40_);fill:#BAD0D8;}
	.st20{clip-path:url(#SVGID_42_);fill:#BAD0D8;}
	.st21{clip-path:url(#SVGID_44_);fill:#BAD0D8;}
	.st22{clip-path:url(#SVGID_46_);fill:#BAD0D8;}
	.st23{clip-path:url(#SVGID_48_);fill:#BAD0D8;}
	.st24{clip-path:url(#SVGID_50_);fill:#BAD0D8;}
	.st25{clip-path:url(#SVGID_52_);fill:#BAD0D8;}
	.st26{clip-path:url(#SVGID_54_);fill:#BAD0D8;}
	.st27{clip-path:url(#SVGID_56_);fill:#BAD0D8;}
	.st28{clip-path:url(#SVGID_58_);fill:#BAD0D8;}
</style>
<g>
	<defs>
		<rect id="SVGID_1_" width="9" height="9"/>
	</defs>
	<clipPath id="SVGID_2_">
		<use xlink:href="#SVGID_1_"  style="overflow:visible;"/>
	</clipPath>
	<rect x="-5" y="-5" class="st0" width="19" height="19"/>
</g>
<g>
	<defs>
		<rect id="SVGID_3_" y="31" width="9" height="9"/>
	</defs>
	<clipPath id="SVGID_4_">
		<use xlink:href="#SVGID_3_"  style="overflow:visible;"/>
	</clipPath>
	<rect x="-5" y="26" class="st1" width="19" height="19"/>
</g>
<g>
	<defs>
		<rect id="SVGID_5_" x="26" y="62" width="9" height="9"/>
	</defs>
	<clipPath id="SVGID_6_">
		<use xlink:href="#SVGID_5_"  style="overflow:visible;"/>
	</clipPath>
	<rect x="21" y="57" class="st2" width="19" height="19"/>
</g>
<g>
	<defs>
		<rect id="SVGID_7_" x="30" width="9" height="9"/>
	</defs>
	<clipPath id="SVGID_8_">
		<use xlink:href="#SVGID_7_"  style="overflow:visible;"/>
	</clipPath>
	<rect x="25" y="-5" class="st3" width="19" height="19"/>
</g>
<g>
	<defs>
		<rect id="SVGID_9_" x="30" y="31" width="9" height="9"/>
	</defs>
	<clipPath id="SVGID_10_">
		<use xlink:href="#SVGID_9_"  style="overflow:visible;"/>
	</clipPath>
	<rect x="25" y="26" class="st4" width="19" height="19"/>
</g>
<g>
	<defs>
		<rect id="SVGID_11_" x="57" y="62" width="9" height="9"/>
	</defs>
	<clipPath id="SVGID_12_">
		<use xlink:href="#SVGID_11_"  style="overflow:visible;"/>
	</clipPath>
	<rect x="52" y="57" class="st5" width="19" height="19"/>
</g>
<g>
	<defs>
		<rect id="SVGID_13_" x="60" y="31" width="9" height="9"/>
	</defs>
	<clipPath id="SVGID_14_">
		<use xlink:href="#SVGID_13_"  style="overflow:visible;"/>
	</clipPath>
	<rect x="55" y="26" class="st6" width="19" height="19"/>
</g>
<g>
	<defs>
		<rect id="SVGID_15_" x="88" y="62" width="9" height="9"/>
	</defs>
	<clipPath id="SVGID_16_">
		<use xlink:href="#SVGID_15_"  style="overflow:visible;"/>
	</clipPath>
	<rect x="83" y="57" class="st7" width="19" height="19"/>
</g>
<g>
	<defs>
		<rect id="SVGID_17_" x="118" y="62" width="9" height="9"/>
	</defs>
	<clipPath id="SVGID_18_">
		<use xlink:href="#SVGID_17_"  style="overflow:visible;"/>
	</clipPath>
	<rect x="113" y="57" class="st8" width="19" height="19"/>
</g>
<g>
	<defs>
		<rect id="SVGID_19_" x="149" y="62" width="9" height="9"/>
	</defs>
	<clipPath id="SVGID_20_">
		<use xlink:href="#SVGID_19_"  style="overflow:visible;"/>
	</clipPath>
	<rect x="144" y="57" class="st9" width="19" height="19"/>
</g>
<g>
	<defs>
		<rect id="SVGID_21_" x="180" y="62" width="9" height="9"/>
	</defs>
	<clipPath id="SVGID_22_">
		<use xlink:href="#SVGID_21_"  style="overflow:visible;"/>
	</clipPath>
	<rect x="175" y="57" class="st10" width="19" height="19"/>
</g>
<g>
	<defs>
		<rect id="SVGID_23_" x="180" y="93" width="9" height="9"/>
	</defs>
	<clipPath id="SVGID_24_">
		<use xlink:href="#SVGID_23_"  style="overflow:visible;"/>
	</clipPath>
	<rect x="175" y="88" class="st11" width="19" height="19"/>
</g>
<g>
	<defs>
		<rect id="SVGID_25_" x="118" y="93" width="9" height="9"/>
	</defs>
	<clipPath id="SVGID_26_">
		<use xlink:href="#SVGID_25_"  style="overflow:visible;"/>
	</clipPath>
	<rect x="113" y="88" class="st12" width="19" height="19"/>
</g>
<g>
	<defs>
		<rect id="SVGID_27_" x="149" y="155" width="9" height="9"/>
	</defs>
	<clipPath id="SVGID_28_">
		<use xlink:href="#SVGID_27_"  style="overflow:visible;"/>
	</clipPath>
	<rect x="144" y="150" class="st13" width="19" height="19"/>
</g>
<g>
	<defs>
		<rect id="SVGID_29_" x="149" y="186" width="9" height="9"/>
	</defs>
	<clipPath id="SVGID_30_">
		<use xlink:href="#SVGID_29_"  style="overflow:visible;"/>
	</clipPath>
	<rect x="144" y="181" class="st14" width="19" height="19"/>
</g>
<g>
	<defs>
		<rect id="SVGID_31_" x="149" y="217" width="9" height="9"/>
	</defs>
	<clipPath id="SVGID_32_">
		<use xlink:href="#SVGID_31_"  style="overflow:visible;"/>
	</clipPath>
	<rect x="144" y="212" class="st15" width="19" height="19"/>
</g>
<g>
	<defs>
		<rect id="SVGID_33_" x="149" y="248" width="9" height="9"/>
	</defs>
	<clipPath id="SVGID_34_">
		<use xlink:href="#SVGID_33_"  style="overflow:visible;"/>
	</clipPath>
	<rect x="144" y="243" class="st16" width="19" height="19"/>
</g>
<g>
	<defs>
		<rect id="SVGID_35_" x="180" y="248" width="9" height="9"/>
	</defs>
	<clipPath id="SVGID_36_">
		<use xlink:href="#SVGID_35_"  style="overflow:visible;"/>
	</clipPath>
	<rect x="175" y="243" class="st17" width="19" height="19"/>
</g>
<g>
	<defs>
		<rect id="SVGID_37_" x="118" y="186" width="9" height="9"/>
	</defs>
	<clipPath id="SVGID_38_">
		<use xlink:href="#SVGID_37_"  style="overflow:visible;"/>
	</clipPath>
	<rect x="113" y="181" class="st18" width="19" height="19"/>
</g>
<g>
	<defs>
		<rect id="SVGID_39_" x="88" y="186" width="9" height="9"/>
	</defs>
	<clipPath id="SVGID_40_">
		<use xlink:href="#SVGID_39_"  style="overflow:visible;"/>
	</clipPath>
	<rect x="83" y="181" class="st19" width="19" height="19"/>
</g>
<g>
	<defs>
		<rect id="SVGID_41_" x="88" y="217" width="9" height="9"/>
	</defs>
	<clipPath id="SVGID_42_">
		<use xlink:href="#SVGID_41_"  style="overflow:visible;"/>
	</clipPath>
	<rect x="83" y="212" class="st20" width="19" height="19"/>
</g>
<g>
	<defs>
		<rect id="SVGID_43_" x="57" y="186" width="9" height="9"/>
	</defs>
	<clipPath id="SVGID_44_">
		<use xlink:href="#SVGID_43_"  style="overflow:visible;"/>
	</clipPath>
	<rect x="52" y="181" class="st21" width="19" height="19"/>
</g>
<g>
	<defs>
		<rect id="SVGID_45_" x="180" y="155" width="9" height="9"/>
	</defs>
	<clipPath id="SVGID_46_">
		<use xlink:href="#SVGID_45_"  style="overflow:visible;"/>
	</clipPath>
	<rect x="175" y="150" class="st22" width="19" height="19"/>
</g>
<g>
	<defs>
		<rect id="SVGID_47_" x="180" y="186" width="9" height="9"/>
	</defs>
	<clipPath id="SVGID_48_">
		<use xlink:href="#SVGID_47_"  style="overflow:visible;"/>
	</clipPath>
	<rect x="175" y="181" class="st23" width="19" height="19"/>
</g>
<g>
	<defs>
		<rect id="SVGID_49_" x="206" y="155" width="9" height="9"/>
	</defs>
	<clipPath id="SVGID_50_">
		<use xlink:href="#SVGID_49_"  style="overflow:visible;"/>
	</clipPath>
	<rect x="201" y="150" class="st24" width="19" height="19"/>
</g>
<g>
	<defs>
		<rect id="SVGID_51_" x="206" y="186" width="9" height="9"/>
	</defs>
	<clipPath id="SVGID_52_">
		<use xlink:href="#SVGID_51_"  style="overflow:visible;"/>
	</clipPath>
	<rect x="201" y="181" class="st25" width="19" height="19"/>
</g>
<g>
	<defs>
		<rect id="SVGID_53_" x="232" y="186" width="9" height="9"/>
	</defs>
	<clipPath id="SVGID_54_">
		<use xlink:href="#SVGID_53_"  style="overflow:visible;"/>
	</clipPath>
	<rect x="227" y="181" class="st26" width="19" height="19"/>
</g>
<g>
	<defs>
		<rect id="SVGID_55_" x="206" y="124" width="9" height="9"/>
	</defs>
	<clipPath id="SVGID_56_">
		<use xlink:href="#SVGID_55_"  style="overflow:visible;"/>
	</clipPath>
	<rect x="201" y="119" class="st27" width="19" height="19"/>
</g>
<g>
	<defs>
		<path id="SVGID_57_" d="M137.2,124.8c-1.8,0-3.2,1.6-3.2,3.5c0,1.9,1.5,3.5,3.2,3.5c0.4,0,0.7-0.1,1.1-0.2
			c3.8-0.7,17.6-2.9,30.1-0.1c0.4,0.2,0.8,0.3,1.3,0.3c1.8,0,3.2-1.6,3.2-3.5c0-1.9-1.5-3.5-3.2-3.5c-0.5,0-0.9,0.1-1.3,0.3
			c-4.1,0.9-17.4,3.3-29.7,0.1C138.3,125,137.8,124.8,137.2,124.8z"/>
	</defs>
	<clipPath id="SVGID_58_">
		<use xlink:href="#SVGID_57_"  style="overflow:visible;"/>
	</clipPath>
	<rect x="129" y="119.8" class="st28" width="49" height="17"/>
</g>
</svg>
